<?xml version="1.0" encoding="UTF-8"?>
<!DOCTYPE svg PUBLIC "-//W3C//DTD SVG 1.1//EN" "http://www.w3.org/Graphics/SVG/1.1/DTD/svg11.dtd">
<!-- Creator: CorelDRAW (Versión de evaluación) -->
<svg xmlns="http://www.w3.org/2000/svg" xml:space="preserve" width="420mm" height="297mm" version="1.1" style="shape-rendering:geometricPrecision; text-rendering:geometricPrecision; image-rendering:optimizeQuality; fill-rule:evenodd; clip-rule:evenodd"
viewBox="0 0 42000 29700"
 xmlns:xlink="http://www.w3.org/1999/xlink"
 xmlns:xodm="http://www.corel.com/coreldraw/odm/2003">
 <defs>
  <style type="text/css">
   <![CDATA[
    .fil0 {fill:white}
   ]]>
  </style>
 </defs>
 <g id="Capa_x0020_1">
  <metadata id="CorelCorpID_0Corel-Layer"/>
  <path class="fil0" d="M13016.29 10827.19l2019.55 1572.06c1072.87,881.54 2424.86,1886.55 3542.63,2778.46l2295.26 1799.3c80.11,65.99 184.88,157.15 259.54,207.16l4545.61 -3571.21c97.12,-73.14 150.52,-113.79 242.2,-188.79 94.56,-76.88 170.76,-125.01 265.15,-201.89l3064.03 -2395.09 0 8763.47 -16233.97 0 0 -8763.47zm538.82 -1005.7l15156.33 0c-67.86,101.54 -1198.57,960.63 -1395.86,1118.12l-5939.26 4655.99c-79.77,65.82 -163.96,135.05 -243.05,187.94l-4732.7 -3707.61c-264.81,-217.71 -2761.78,-2129.26 -2845.46,-2254.44zm-1616.29 10882.52l18388.91 0 0 -11959.99 -18388.91 0 0 11959.99zm9194.62 -20405.74c-7966.97,0 -14425.49,6458.52 -14425.49,14425.49 0,7966.81 6458.52,14425.84 14425.49,14425.84 7966.81,0 14425.33,-6459.03 14425.33,-14425.84 0,-7966.97 -6458.52,-14425.49 -14425.33,-14425.49z"/>
 </g>
</svg>
