<?xml version="1.0" encoding="UTF-8"?>
<!DOCTYPE svg PUBLIC "-//W3C//DTD SVG 1.1//EN" "http://www.w3.org/Graphics/SVG/1.1/DTD/svg11.dtd">
<!-- Creator: CorelDRAW (Versión de evaluación) -->
<svg xmlns="http://www.w3.org/2000/svg" xml:space="preserve" width="420mm" height="297mm" version="1.1" style="shape-rendering:geometricPrecision; text-rendering:geometricPrecision; image-rendering:optimizeQuality; fill-rule:evenodd; clip-rule:evenodd"
viewBox="0 0 42000 29700"
 xmlns:xlink="http://www.w3.org/1999/xlink"
 xmlns:xodm="http://www.corel.com/coreldraw/odm/2003">
 <defs>
  <style type="text/css">
   <![CDATA[
    .fil0 {fill:white;fill-rule:nonzero}
   ]]>
  </style>
 </defs>
 <g id="Capa_x0020_1">
  <metadata id="CorelCorpID_0Corel-Layer"/>
  <path class="fil0" d="M26353.15 7556.15l-1987.58 1.15c-1558.52,0 -1860.14,741.24 -1860.14,1827.32l0 2396.18 3717 0 -484.23 3754.16 -3232.77 0 0 9630.79 -3876.2 0 0 -9630.79 -3240.72 0 0 -3754.16 3240.72 0 0 -2768.03c0,-3212.31 1962.04,-4961.54 4828.04,-4961.54 1372.31,0 2552.02,102.23 2895.88,147.9l0 3357.02zm-5482.52 -7225.2c-7885.17,0 -14277.38,6392.21 -14277.38,14277.38 0,7885.08 6392.21,14277.7 14277.38,14277.7 7885.16,0 14277.37,-6392.62 14277.37,-14277.7 0,-7885.17 -6392.21,-14277.38 -14277.37,-14277.38z"/>
 </g>
</svg>
