<?xml version="1.0" encoding="UTF-8"?>
<!DOCTYPE svg PUBLIC "-//W3C//DTD SVG 1.1//EN" "http://www.w3.org/Graphics/SVG/1.1/DTD/svg11.dtd">
<!-- Creator: CorelDRAW (Versión de evaluación) -->
<svg xmlns="http://www.w3.org/2000/svg" xml:space="preserve" width="420mm" height="297mm" version="1.1" style="shape-rendering:geometricPrecision; text-rendering:geometricPrecision; image-rendering:optimizeQuality; fill-rule:evenodd; clip-rule:evenodd"
viewBox="0 0 42000 29700"
 xmlns:xlink="http://www.w3.org/1999/xlink"
 xmlns:xodm="http://www.corel.com/coreldraw/odm/2003">
 <defs>
  <style type="text/css">
   <![CDATA[
    .fil1 {fill:#FEFEFE;fill-rule:nonzero}
    .fil0 {fill:#CD3539;fill-rule:nonzero}
    .fil2 {fill:#3B4367;fill-rule:nonzero}
   ]]>
  </style>
 </defs>
 <g id="Capa_x0020_1">
  <metadata id="CorelCorpID_0Corel-Layer"/>
  <g id="_2745605310688">
   <polygon class="fil0" points="589.8,26912.46 40943.18,26912.46 40943.18,25101.81 589.8,25101.81 "/>
   <polygon class="fil1" points="589.8,25101.81 40943.18,25101.81 40943.18,23292.18 589.8,23292.18 "/>
   <polygon class="fil0" points="589.8,23292.52 40943.18,23292.52 40943.18,21482.89 589.8,21482.89 "/>
   <polygon class="fil1" points="589.8,21482.89 40943.18,21482.89 40943.18,19672.58 589.8,19672.58 "/>
   <polygon class="fil0" points="589.8,19672.24 40943.18,19672.24 40943.18,17860.57 589.8,17860.57 "/>
   <polygon class="fil1" points="589.8,17860.57 40943.18,17860.57 40943.18,16050.94 589.8,16050.94 "/>
   <polygon class="fil0" points="589.8,16051.28 40943.18,16051.28 40943.18,14238.58 589.8,14238.58 "/>
   <polygon class="fil1" points="589.8,14238.24 40943.18,14238.24 40943.18,12428.61 589.8,12428.61 "/>
   <polygon class="fil0" points="589.8,12428.95 40943.18,12428.95 40943.18,10619.33 589.8,10619.33 "/>
   <polygon class="fil1" points="589.8,10619.33 40943.18,10619.33 40943.18,8807.65 589.8,8807.65 "/>
   <polygon class="fil0" points="589.8,8807.65 40943.18,8807.65 40943.18,6997.34 589.8,6997.34 "/>
   <polygon class="fil1" points="589.8,6997 40943.18,6997 40943.18,5186.01 589.8,5186.01 "/>
   <polygon class="fil0" points="589.8,5186.35 40943.18,5186.35 40943.18,3374.68 589.8,3374.68 "/>
   <polygon class="fil2" points="589.8,16051.28 19017.35,16051.28 19017.35,3374.68 589.8,3374.68 "/>
   <polygon class="fil1" points="2254.93,4771.6 2412.38,5252.47 2917.44,5252.47 2508.48,5548.28 2663.54,6026.76 2254.93,5730.94 1845.97,6026.76 2005.81,5548.28 1597.19,5252.47 2097.48,5252.47 "/>
   <polygon class="fil1" points="2254.93,6888.97 2412.38,7367.45 2917.44,7367.45 2508.48,7661.9 2663.54,8142.76 2254.93,7845.93 1845.97,8142.76 2005.81,7661.9 1597.19,7367.45 2097.48,7367.45 "/>
   <polygon class="fil1" points="2254.93,9004.63 2412.38,9482.09 2917.44,9482.09 2508.48,9777.9 2663.54,10258.76 2254.93,9961.93 1845.97,10258.76 2005.81,9777.9 1597.19,9482.09 2097.48,9482.09 "/>
   <polygon class="fil1" points="2254.93,11119.61 2412.38,11599.12 2917.44,11599.12 2508.48,11894.93 2663.54,12373.4 2254.93,12077.59 1845.97,12373.4 2005.81,11894.93 1597.19,11599.12 2097.48,11599.12 "/>
   <polygon class="fil1" points="2254.93,13234.26 2412.38,13716.48 2917.44,13716.48 2508.48,14009.91 2663.54,14488.39 2254.93,14192.58 1845.97,14488.39 2005.81,14009.91 1597.19,13716.48 2097.48,13716.48 "/>
   <polygon class="fil1" points="3728.87,5886.01 3879.17,6367.21 4386.27,6367.21 3980.04,6664.04 4132.72,7141.16 3728.87,6846.71 3323.67,7141.16 3476.34,6664.04 3070.11,6367.21 3574.83,6367.21 "/>
   <polygon class="fil1" points="3728.87,8003.37 3879.17,8480.49 4386.27,8480.49 3980.04,8777.66 4132.72,9256.14 3728.87,8962.72 3323.67,9256.14 3476.34,8777.66 3070.11,8480.49 3574.83,8480.49 "/>
   <polygon class="fil1" points="3728.87,10119.38 3879.17,10597.86 4386.27,10597.86 3980.04,10893.67 4132.72,11373.17 3728.87,11076.33 3323.67,11373.17 3476.34,10893.67 3070.11,10597.86 3574.83,10597.86 "/>
   <polygon class="fil1" points="3728.87,12235.38 3879.17,12713.86 4386.27,12713.86 3980.04,13009.33 4132.72,13486.79 3728.87,13189.95 3323.67,13486.79 3476.34,13009.33 3070.11,12713.86 3574.83,12713.86 "/>
   <polygon class="fil1" points="5218.5,4771.6 5375.94,5252.47 5881.01,5252.47 5472.05,5548.28 5629.5,6026.76 5218.5,5730.94 4814.31,6026.76 4969.37,5548.28 4560.76,5252.47 5063.43,5252.47 "/>
   <polygon class="fil1" points="5218.5,6888.97 5375.94,7367.45 5881.01,7367.45 5472.05,7661.9 5629.5,8142.76 5218.5,7845.93 4814.31,8142.76 4969.37,7661.9 4560.76,7367.45 5063.43,7367.45 "/>
   <polygon class="fil1" points="5218.5,9004.63 5375.94,9482.09 5881.01,9482.09 5472.05,9777.9 5629.5,10258.76 5218.5,9961.93 4814.31,10258.76 4969.37,9777.9 4560.76,9482.09 5063.43,9482.09 "/>
   <polygon class="fil1" points="5218.5,11119.61 5375.94,11599.12 5881.01,11599.12 5472.05,11894.93 5629.5,12373.4 5218.5,12077.59 4814.31,12373.4 4969.37,11894.93 4560.76,11599.12 5063.43,11599.12 "/>
   <polygon class="fil1" points="5218.5,13234.26 5375.94,13716.48 5881.01,13716.48 5472.05,14009.91 5629.5,14488.39 5218.5,14192.58 4814.31,14488.39 4969.37,14009.91 4560.76,13716.48 5063.43,13716.48 "/>
   <polygon class="fil1" points="6692.44,5886.01 6847.5,6367.21 7354.95,6367.21 6943.61,6664.04 7101.06,7141.16 6692.44,6846.71 6285.87,7141.16 6443.66,6664.04 6032.32,6367.21 6537.38,6367.21 "/>
   <polygon class="fil1" points="6692.44,8003.37 6847.5,8480.49 7354.95,8480.49 6943.61,8777.66 7101.06,9256.14 6692.44,8962.72 6285.87,9256.14 6443.66,8777.66 6032.32,8480.49 6537.38,8480.49 "/>
   <polygon class="fil1" points="6692.44,10119.38 6847.5,10597.86 7354.95,10597.86 6943.61,10893.67 7101.06,11373.17 6692.44,11076.33 6285.87,11373.17 6443.66,10893.67 6032.32,10597.86 6537.38,10597.86 "/>
   <polygon class="fil1" points="6692.44,12235.38 6847.5,12713.86 7354.95,12713.86 6943.61,13009.33 7101.06,13486.79 6692.44,13189.95 6285.87,13486.79 6443.66,13009.33 6032.32,12713.86 6537.38,12713.86 "/>
   <polygon class="fil1" points="8186.83,4771.6 8342.92,5252.47 8843.21,5252.47 8435.62,5548.28 8596.81,6026.76 8186.83,5730.94 7777.88,6026.76 7932.94,5548.28 7529.1,5252.47 8031.77,5252.47 "/>
   <polygon class="fil1" points="8186.83,6888.97 8342.92,7367.45 8843.21,7367.45 8435.62,7661.9 8596.81,8142.76 8186.83,7845.93 7777.88,8142.76 7932.94,7661.9 7529.1,7367.45 8031.77,7367.45 "/>
   <polygon class="fil1" points="8186.83,9004.63 8342.92,9482.09 8843.21,9482.09 8435.62,9777.9 8596.81,10258.76 8186.83,9961.93 7777.88,10258.76 7932.94,9777.9 7529.1,9482.09 8031.77,9482.09 "/>
   <polygon class="fil1" points="8186.83,11119.61 8342.92,11599.12 8843.21,11599.12 8435.62,11894.93 8596.81,12373.4 8186.83,12077.59 7777.88,12373.4 7932.94,11894.93 7529.1,11599.12 8031.77,11599.12 "/>
   <polygon class="fil1" points="8186.83,13234.26 8342.92,13716.48 8843.21,13716.48 8435.62,14009.91 8596.81,14488.39 8186.83,14192.58 7777.88,14488.39 7932.94,14009.91 7529.1,13716.48 8031.77,13716.48 "/>
   <polygon class="fil1" points="9660.78,5886.01 9815.84,6367.21 10318.52,6367.21 9911.95,6664.04 10064.62,7141.16 9660.78,6846.71 9254.21,7141.16 9406.89,6664.04 9000.66,6367.21 9503.33,6367.21 "/>
   <polygon class="fil1" points="9660.78,8003.37 9815.84,8480.49 10318.52,8480.49 9911.95,8777.66 10064.62,9256.14 9660.78,8962.72 9254.21,9256.14 9406.89,8777.66 9000.66,8480.49 9503.33,8480.49 "/>
   <polygon class="fil1" points="9660.78,10119.38 9815.84,10597.86 10318.52,10597.86 9911.95,10893.67 10064.62,11373.17 9660.78,11076.33 9254.21,11373.17 9406.89,10893.67 9000.66,10597.86 9503.33,10597.86 "/>
   <polygon class="fil1" points="9660.78,12235.38 9815.84,12713.86 10318.52,12713.86 9911.95,13009.33 10064.62,13486.79 9660.78,13189.95 9254.21,13486.79 9406.89,13009.33 9000.66,12713.86 9503.33,12713.86 "/>
   <polygon class="fil1" points="11149.04,4771.6 11306.49,5252.47 11809.16,5252.47 11402.93,5548.28 11560.38,6026.76 11149.04,5730.94 10745.2,6026.76 10897.87,5548.28 10491.64,5252.47 10993.98,5252.47 "/>
   <polygon class="fil1" points="11149.04,6888.97 11306.49,7367.45 11809.16,7367.45 11402.93,7661.9 11560.38,8142.76 11149.04,7845.93 10745.2,8142.76 10897.87,7661.9 10491.64,7367.45 10993.98,7367.45 "/>
   <polygon class="fil1" points="11149.04,9004.63 11306.49,9482.09 11809.16,9482.09 11402.93,9777.9 11560.38,10258.76 11149.04,9961.93 10745.2,10258.76 10897.87,9777.9 10491.64,9482.09 10993.98,9482.09 "/>
   <polygon class="fil1" points="11149.04,11119.61 11306.49,11599.12 11809.16,11599.12 11402.93,11894.93 11560.38,12373.4 11149.04,12077.59 10745.2,12373.4 10897.87,11894.93 10491.64,11599.12 10993.98,11599.12 "/>
   <polygon class="fil1" points="11149.04,13234.26 11306.49,13716.48 11809.16,13716.48 11402.93,14009.91 11560.38,14488.39 11149.04,14192.58 10745.2,14488.39 10897.87,14009.91 10491.64,13716.48 10993.98,13716.48 "/>
   <polygon class="fil1" points="12624.35,5886.01 12779.41,6367.21 13286.86,6367.21 12877.9,6664.04 13032.96,7141.16 12624.35,6846.71 12217.78,7141.16 12375.57,6664.04 11966.61,6367.21 12471.67,6367.21 "/>
   <polygon class="fil1" points="12624.35,8003.37 12779.41,8480.49 13286.86,8480.49 12877.9,8777.66 13032.96,9256.14 12624.35,8962.72 12217.78,9256.14 12375.57,8777.66 11966.61,8480.49 12471.67,8480.49 "/>
   <polygon class="fil1" points="12624.35,10119.38 12779.41,10597.86 13286.86,10597.86 12877.9,10893.67 13032.96,11373.17 12624.35,11076.33 12217.78,11373.17 12375.57,10893.67 11966.61,10597.86 12471.67,10597.86 "/>
   <polygon class="fil1" points="12624.35,12235.38 12779.41,12713.86 13286.86,12713.86 12877.9,13009.33 13032.96,13486.79 12624.35,13189.95 12217.78,13486.79 12375.57,13009.33 11966.61,12713.86 12471.67,12713.86 "/>
   <polygon class="fil1" points="14117.38,4771.6 14274.83,5252.47 14777.5,5252.47 14371.27,5548.28 14523.95,6026.76 14117.38,5730.94 13713.53,6026.76 13866.21,5548.28 13459.98,5252.47 13962.31,5252.47 "/>
   <polygon class="fil1" points="14117.38,6888.97 14274.83,7367.45 14777.5,7367.45 14371.27,7661.9 14523.95,8142.76 14117.38,7845.93 13713.53,8142.76 13866.21,7661.9 13459.98,7367.45 13962.31,7367.45 "/>
   <polygon class="fil1" points="14117.38,9004.63 14274.83,9482.09 14777.5,9482.09 14371.27,9777.9 14523.95,10258.76 14117.38,9961.93 13713.53,10258.76 13866.21,9777.9 13459.98,9482.09 13962.31,9482.09 "/>
   <polygon class="fil1" points="14117.38,11119.61 14274.83,11599.12 14777.5,11599.12 14371.27,11894.93 14523.95,12373.4 14117.38,12077.59 13713.53,12373.4 13866.21,11894.93 13459.98,11599.12 13962.31,11599.12 "/>
   <polygon class="fil1" points="14117.38,13234.26 14274.83,13716.48 14777.5,13716.48 14371.27,14009.91 14523.95,14488.39 14117.38,14192.58 13713.53,14488.39 13866.21,14009.91 13459.98,13716.48 13962.31,13716.48 "/>
   <polygon class="fil1" points="15592.69,5886.01 15745.36,6367.21 16250.42,6367.21 15846.24,6664.04 15996.53,7141.16 15592.69,6846.71 15181.34,7141.16 15339.13,6664.04 14934.95,6367.21 15435.24,6367.21 "/>
   <polygon class="fil1" points="15592.69,8003.37 15745.36,8480.49 16250.42,8480.49 15846.24,8777.66 15996.53,9256.14 15592.69,8962.72 15181.34,9256.14 15339.13,8777.66 14934.95,8480.49 15435.24,8480.49 "/>
   <polygon class="fil1" points="15592.69,10119.38 15745.36,10597.86 16250.42,10597.86 15846.24,10893.67 15996.53,11373.17 15592.69,11076.33 15181.34,11373.17 15339.13,10893.67 14934.95,10597.86 15435.24,10597.86 "/>
   <polygon class="fil1" points="15592.69,12235.38 15745.36,12713.86 16250.42,12713.86 15846.24,13009.33 15996.53,13486.79 15592.69,13189.95 15181.34,13486.79 15339.13,13009.33 14934.95,12713.86 15435.24,12713.86 "/>
   <polygon class="fil1" points="17080.94,4771.6 17240.78,5252.47 17741.07,5252.47 17334.84,5548.28 17492.29,6026.76 17080.94,5730.94 16677.1,6026.76 16829.78,5548.28 16423.55,5252.47 16925.88,5252.47 "/>
   <polygon class="fil1" points="17080.94,6888.97 17240.78,7367.45 17741.07,7367.45 17334.84,7661.9 17492.29,8142.76 17080.94,7845.93 16677.1,8142.76 16829.78,7661.9 16423.55,7367.45 16925.88,7367.45 "/>
   <polygon class="fil1" points="17080.94,9004.63 17240.78,9482.09 17741.07,9482.09 17334.84,9777.9 17492.29,10258.76 17080.94,9961.93 16677.1,10258.76 16829.78,9777.9 16423.55,9482.09 16925.88,9482.09 "/>
   <polygon class="fil1" points="17080.94,11119.61 17240.78,11599.12 17741.07,11599.12 17334.84,11894.93 17492.29,12373.4 17080.94,12077.59 16677.1,12373.4 16829.78,11894.93 16423.55,11599.12 16925.88,11599.12 "/>
   <polygon class="fil1" points="17080.94,13234.26 17240.78,13716.48 17741.07,13716.48 17334.84,14009.91 17492.29,14488.39 17080.94,14192.58 16677.1,14488.39 16829.78,14009.91 16423.55,13716.48 16925.88,13716.48 "/>
  </g>
 </g>
</svg>
