<?xml version="1.0" encoding="UTF-8"?>
<!DOCTYPE svg PUBLIC "-//W3C//DTD SVG 1.1//EN" "http://www.w3.org/Graphics/SVG/1.1/DTD/svg11.dtd">
<!-- Creator: CorelDRAW (Versión de evaluación) -->
<svg xmlns="http://www.w3.org/2000/svg" xml:space="preserve" width="420mm" height="297mm" version="1.1" style="shape-rendering:geometricPrecision; text-rendering:geometricPrecision; image-rendering:optimizeQuality; fill-rule:evenodd; clip-rule:evenodd"
viewBox="0 0 42000 29700"
 xmlns:xlink="http://www.w3.org/1999/xlink"
 xmlns:xodm="http://www.corel.com/coreldraw/odm/2003">
 <defs>
  <style type="text/css">
   <![CDATA[
    .fil0 {fill:white;fill-rule:nonzero}
   ]]>
  </style>
 </defs>
 <g id="Capa_x0020_1">
  <metadata id="CorelCorpID_0Corel-Layer"/>
  <path class="fil0" d="M29528.12 22132.57l-3428.8 0 0 -5369.11c0,-1280.82 -25.23,-2929.84 -1784.88,-2929.84 -1786.58,0 -2058.71,1395.01 -2058.71,2835.54l0 5463.41 -3428.88 0 0 -11043.43 3290.84 0 0 1509.19 46.58 0c458.12,-870.4 1578.25,-1785.93 3248.54,-1785.93 3472.96,0 4115.31,2287.81 4115.31,5263.5l0 6056.67zm-14572.92 -12555.86c-1102.26,0 -1991.51,-889.89 -1991.51,-1991.1 0,-1098.38 889.25,-1988.35 1991.51,-1988.35 1098.7,0 1989.72,889.97 1989.72,1988.35 0,1101.21 -891.02,1991.1 -1989.72,1991.1zm1717.27 12555.86l-3436.33 0 0 -11043.43 3436.33 0 0 11043.43zm4257.24 -21214.04c-7790.69,0 -14106.31,6316.35 -14106.31,14107.36 0,7791.41 6315.62,14107.76 14106.31,14107.76 7790.68,0 14106.3,-6316.35 14106.3,-14107.76 0,-7791.01 -6315.62,-14107.36 -14106.3,-14107.36z"/>
 </g>
</svg>
