<?xml version="1.0" encoding="UTF-8"?>
<!DOCTYPE svg PUBLIC "-//W3C//DTD SVG 1.1//EN" "http://www.w3.org/Graphics/SVG/1.1/DTD/svg11.dtd">
<!-- Creator: CorelDRAW (Versión de evaluación) -->
<svg xmlns="http://www.w3.org/2000/svg" xml:space="preserve" width="420mm" height="140.5mm" version="1.1" style="shape-rendering:geometricPrecision; text-rendering:geometricPrecision; image-rendering:optimizeQuality; fill-rule:evenodd; clip-rule:evenodd"
viewBox="0 0 42000 14050"
 xmlns:xlink="http://www.w3.org/1999/xlink"
 xmlns:xodm="http://www.corel.com/coreldraw/odm/2003">
 <defs>
  <style type="text/css">
   <![CDATA[
    .fil0 {fill:#67A617}
    .fil2 {fill:#CC3300;fill-rule:nonzero}
    .fil1 {fill:white;fill-rule:nonzero}
   ]]>
  </style>
 </defs>
 <g id="Capa_x0020_1">
  <metadata id="CorelCorpID_0Corel-Layer"/>
  <g id="_2317543299344">
   <g>
    <path class="fil0" d="M23349.38 4172.83c-825.03,70.53 -1428.37,-231.3 -1819.3,-933.22 -335.57,-602.5 -486.64,-1565.1 -801.67,-1876.41 -26.19,-25.88 -21.32,-17.75 -38.08,-48.76 857.74,0.08 1481.26,30.06 2197.81,377.76 151.18,73.36 367.18,232.43 467.87,336.87 29.31,30.4 44.55,54.23 74.19,84.29 55.03,55.82 92.48,115.9 137.3,179.78 267.47,381.24 319.68,927.57 247.02,1403.36 -17.38,113.79 -67.68,226.81 -36.97,337.26 37.43,134.64 134.16,560.77 130.26,693.16l-237.65 -0.17c-23.98,-145.48 -29.26,-321.53 -51.34,-477.85 -81.4,-576.26 -332.51,-1112.12 -690.36,-1548.71 -139.23,-169.87 -296.84,-305.69 -476.37,-441.02 -70.05,-52.8 -236.43,-167.81 -326.28,-198.5l354.76 283.11c86.25,76.21 222.18,233.59 295.98,326.71 188.33,237.64 335.05,510.2 440.04,815.26 38.88,112.95 163.53,578.73 132.79,687.08z"/>
    <path class="fil0" d="M26251.2 1313.93c-16.34,33.5 -11.26,23.75 -36.67,51.27 -91.59,99.24 -124.97,171.67 -181.97,303.91 -190.57,442.12 -189,683.39 -467.11,1216.25 -301.42,577.53 -843.54,787.63 -1494.81,734.9 -10.59,-65.82 97.82,-436.28 125.53,-512.82 56.23,-155.29 126.3,-321.74 202.18,-453.47 102.59,-178.1 211.89,-327.92 355.43,-470.79 91.9,-91.47 223.32,-182.87 264.44,-223.96 -115.37,47.08 -235.52,158.46 -322.46,222.93 -26.83,19.88 -43.37,42.29 -68.6,67.03 -117.86,115.57 -222.89,211.28 -317.92,361.62 -35.52,56.2 -72.53,107.08 -105.36,166.07l-173.76 354.14c-29.86,-172.14 -35.35,-308.85 -89.8,-474.42 -91.56,-278.42 -158.17,-275.47 -99.89,-397.03 121.95,-254.33 287.92,-423.62 530.91,-579.11 525.26,-336.11 1191.87,-359.87 1879.86,-366.52z"/>
   </g>
   <path class="fil1" d="M41295.24 6609.53c0,321.95 -60.98,623.78 -182.94,905.57 -121.97,281.7 -289.3,527.81 -501.93,738.38 -212.64,210.52 -461.23,376.13 -745.82,496.88 -284.53,120.7 -589.44,181.12 -914.68,181.12 -412.72,0 -794.28,-96.01 -1144.46,-287.94l0 1495.3 -1200.83 0 0 -3529.31c0,-321.95 60.99,-623.87 182.9,-905.58 121.97,-281.75 289.29,-527.86 501.88,-738.38 212.69,-210.51 461.28,-376.13 745.86,-496.92 284.59,-120.7 589.45,-181.13 914.65,-181.13 325.24,0 630.15,60.43 914.68,181.13 284.59,120.79 533.18,286.41 745.82,496.92 212.63,210.52 379.96,456.63 501.93,738.38 121.96,281.71 182.94,583.63 182.94,905.58zm-1200.82 0c0,-154.81 -29.7,-301.88 -89.13,-441.21 -59.43,-139.34 -140.74,-260.04 -243.88,-362.2 -103.24,-102.17 -225.15,-182.67 -365.89,-241.46 -140.7,-58.88 -289.29,-88.28 -445.65,-88.28 -156.32,0 -304.87,29.4 -445.61,88.28 -140.69,58.79 -262.66,139.29 -365.85,241.46 -103.19,102.16 -184.5,222.86 -243.93,362.2 -59.38,139.33 -89.07,286.4 -89.07,441.21 0,154.8 29.69,301.82 89.07,441.16 59.43,139.29 140.74,260.04 243.93,362.2 103.19,102.21 225.16,182.66 365.85,241.5 140.74,58.79 289.29,88.23 445.61,88.23 156.36,0 304.95,-29.44 445.65,-88.23 140.74,-58.84 262.65,-139.29 365.89,-241.5 103.14,-102.16 184.45,-222.91 243.88,-362.2 59.43,-139.34 89.13,-286.36 89.13,-441.16z"/>
   <path class="fil1" d="M34934.72 6609.53c0,-154.81 -29.69,-301.88 -89.17,-441.21 -59.38,-139.34 -140.69,-260.04 -243.84,-362.2 -103.23,-102.17 -225.15,-182.67 -365.89,-241.46 -140.69,-58.88 -289.29,-88.28 -445.65,-88.28 -156.32,0 -304.87,29.4 -445.61,88.28 -140.69,58.79 -262.65,139.29 -365.84,241.46 -103.24,102.16 -184.5,222.86 -243.93,362.2 -59.39,139.33 -89.08,286.4 -89.08,441.21l0 2321.95 -1200.82 0 0 -2321.95c0,-321.95 60.98,-623.87 182.9,-905.58 121.96,-281.75 289.24,-527.86 501.88,-738.38 212.68,-210.51 461.27,-376.13 745.81,-496.92 284.63,-120.7 589.5,-181.13 914.69,-181.13 325.19,0 630.15,60.43 914.69,181.13 284.58,120.79 533.17,286.41 745.81,496.92 212.64,210.52 379.96,456.63 501.93,738.38 121.96,281.71 182.95,583.63 182.95,905.58l-1200.83 0z"/>
   <path class="fil1" d="M28630.47 4287.52c325.19,0 630.15,60.43 914.69,181.13 284.59,120.79 533.17,286.41 745.81,496.92 212.64,210.52 379.92,456.63 501.93,738.38 121.92,281.71 182.95,583.63 182.95,905.58 0,321.95 -61.03,623.78 -182.95,905.57 -122.01,281.7 -289.29,527.81 -501.93,738.38 -212.64,210.52 -461.22,376.13 -745.81,496.88 -284.54,120.7 -589.5,181.12 -914.69,181.12 -325.19,0 -630.06,-60.42 -914.69,-181.12 -284.54,-120.75 -533.12,-286.36 -745.81,-496.88 -212.64,-210.57 -379.92,-456.68 -501.88,-738.38 -121.92,-281.79 -182.95,-583.62 -182.95,-905.57 0,-321.95 61.03,-623.87 182.95,-905.58 121.96,-281.75 289.24,-527.86 501.88,-738.38 212.69,-210.51 461.27,-376.13 745.81,-496.92 284.63,-120.7 589.5,-181.13 914.69,-181.13zm0 3455.1c156.36,0 304.91,-29.44 445.65,-88.23 140.74,-58.84 262.66,-139.29 365.85,-241.5 103.19,-102.16 184.5,-222.91 243.88,-362.2 59.48,-139.34 89.17,-286.36 89.17,-441.16 0,-154.81 -29.69,-301.88 -89.17,-441.21 -59.38,-139.34 -140.69,-260.04 -243.88,-362.2 -103.19,-102.17 -225.11,-182.67 -365.85,-241.46 -140.74,-58.88 -289.29,-88.28 -445.65,-88.28 -156.36,0 -304.86,29.4 -445.6,88.28 -140.7,58.79 -262.66,139.29 -365.85,241.46 -103.24,102.16 -184.5,222.86 -243.93,362.2 -59.38,139.33 -89.12,286.4 -89.12,441.21 0,154.8 29.74,301.82 89.12,441.16 59.43,139.29 140.69,260.04 243.93,362.2 103.19,102.21 225.15,182.66 365.85,241.5 140.74,58.79 289.24,88.23 445.6,88.23z"/>
   <path class="fil1" d="M18426.08 4279.46c325.19,0 630.1,60.43 914.69,181.13 284.58,120.79 533.17,286.41 745.81,496.93 212.59,210.51 379.92,456.63 501.93,738.37 121.92,281.71 182.94,583.63 182.94,905.58 0,321.95 -61.02,623.78 -182.94,905.57 -122.01,281.7 -289.34,527.81 -501.93,738.38 -212.64,210.52 -461.23,376.13 -745.81,496.88 -284.59,120.7 -589.5,181.12 -914.69,181.12 -325.24,0 -630.11,-60.42 -914.69,-181.12 -284.54,-120.75 -533.13,-286.36 -745.81,-496.88 -212.64,-210.57 -379.97,-456.68 -501.88,-738.38 -121.92,-281.79 -182.95,-583.62 -182.95,-905.57 0,-321.95 61.03,-623.87 182.95,-905.58 121.91,-281.74 289.24,-527.86 501.88,-738.37 212.68,-210.52 461.27,-376.14 745.81,-496.93 284.58,-120.7 589.45,-181.13 914.69,-181.13zm0 3455.1c156.31,0 304.91,-29.44 445.65,-88.23 140.69,-58.84 262.66,-139.29 365.85,-241.5 103.19,-102.16 184.5,-222.91 243.88,-362.2 59.43,-139.34 89.17,-286.36 89.17,-441.16 0,-154.81 -29.74,-301.88 -89.17,-441.21 -59.38,-139.34 -140.69,-260.04 -243.88,-362.2 -103.19,-102.17 -225.16,-182.67 -365.85,-241.46 -140.74,-58.88 -289.34,-88.28 -445.65,-88.28 -156.36,0 -304.87,29.4 -445.61,88.28 -140.74,58.79 -262.65,139.29 -365.84,241.46 -103.24,102.16 -184.5,222.86 -243.98,362.2 -59.38,139.33 -89.08,286.4 -89.08,441.21 0,154.8 29.7,301.82 89.08,441.16 59.48,139.29 140.74,260.04 243.98,362.2 103.19,102.21 225.1,182.66 365.84,241.5 140.74,58.79 289.25,88.23 445.61,88.23z"/>
   <path class="fil1" d="M14410.88 6601.47c0,-154.81 -29.69,-301.88 -89.12,-441.21 -59.38,-139.34 -140.74,-260.04 -243.88,-362.2 -103.19,-102.17 -225.16,-182.67 -365.85,-241.46 -140.74,-58.88 -289.33,-88.28 -445.65,-88.28 -156.36,0 -304.91,29.4 -445.6,88.28 -140.74,58.79 -262.66,139.29 -365.9,241.46 -103.19,102.16 -184.45,222.86 -243.93,362.2 -59.38,139.33 -89.07,286.4 -89.07,441.21l0 2321.95 -1200.83 0 0 -2321.95c0,-321.95 60.98,-623.87 182.95,-905.58 121.92,-281.74 289.24,-527.86 501.88,-738.37 212.69,-210.52 461.27,-376.14 745.81,-496.93 284.59,-120.7 589.45,-181.13 914.69,-181.13 325.19,0 630.11,60.43 914.64,181.13 284.63,120.79 533.22,286.41 745.81,496.93 212.64,210.51 379.97,456.63 501.98,738.37 121.92,281.71 182.9,583.63 182.9,905.58l-1200.83 0z"/>
   <path class="fil1" d="M8106.68 11245.33c-325.24,0 -630.1,-60.32 -914.69,-181.12 -284.53,-120.7 -533.12,-286.36 -745.81,-496.88 -212.64,-210.47 -379.96,-456.68 -501.88,-738.38 -121.96,-281.7 -182.95,-583.57 -182.95,-905.53l1200.83 0c0,154.76 29.69,301.83 89.07,441.12 59.48,139.34 140.74,260.13 243.93,362.25 103.24,102.16 225.16,182.71 365.9,241.5 140.69,58.79 289.24,88.23 445.6,88.23 156.32,0 304.92,-29.44 445.66,-88.23 140.69,-58.79 262.65,-139.34 365.84,-241.5 103.15,-102.12 184.5,-222.91 243.89,-362.25 59.42,-139.29 89.12,-286.36 89.12,-441.12l0 -287.94c-350.23,191.93 -731.75,287.94 -1144.51,287.94 -325.24,0 -630.1,-60.42 -914.69,-181.12 -284.53,-120.75 -533.12,-286.36 -745.81,-496.88 -212.64,-210.57 -379.96,-456.68 -501.88,-738.38 -121.96,-281.79 -182.95,-583.62 -182.95,-905.57 0,-321.95 60.99,-623.87 182.95,-905.58 121.92,-281.74 289.24,-527.86 501.88,-738.37 212.69,-210.52 461.28,-376.14 745.81,-496.93 284.59,-120.7 589.45,-181.13 914.69,-181.13 325.2,0 630.11,60.43 914.65,181.13 284.63,120.79 533.22,286.41 745.81,496.93 212.64,210.51 379.96,456.63 501.97,738.37 121.92,281.71 182.9,583.63 182.9,905.58l0 2321.95c0,321.96 -60.98,623.83 -182.9,905.53 -122.01,281.7 -289.33,527.91 -501.97,738.38 -212.59,210.52 -461.18,376.18 -745.81,496.88 -284.54,120.8 -589.45,181.12 -914.65,181.12zm0 -3510.77c150.11,0 293.95,-27.9 431.54,-83.62 137.59,-55.71 257.95,-133.09 361.19,-232.18 103.19,-99.04 186.05,-215.18 248.59,-348.27 62.53,-133.14 96.93,-273.97 103.19,-422.62l0 -46.4c0,-154.81 -29.7,-301.88 -89.12,-441.21 -59.39,-139.34 -140.74,-260.04 -243.89,-362.2 -103.19,-102.17 -225.15,-182.67 -365.84,-241.46 -140.74,-58.88 -289.34,-88.28 -445.66,-88.28 -156.36,0 -304.91,29.4 -445.6,88.28 -140.74,58.79 -262.66,139.29 -365.9,241.46 -103.19,102.16 -184.45,222.86 -243.93,362.2 -59.38,139.33 -89.07,286.4 -89.07,441.21 0,154.8 29.69,301.82 89.07,441.16 59.48,139.29 140.74,260.04 243.93,362.2 103.24,102.21 225.16,182.66 365.9,241.5 140.69,58.79 289.24,88.23 445.6,88.23z"/>
   <path class="fil1" d="M2946.94 4279.46c325.24,0 630.15,60.43 914.69,181.13 284.58,120.79 533.17,286.41 745.81,496.93 212.64,210.51 379.96,456.63 501.93,738.37 121.26,280.12 182.24,580.18 182.95,900.08l0 5.5 0 2321.4 -1019.91 0 0 -402.69c-127.37,85.95 -264.3,159.98 -410.78,222.12 -284.54,120.7 -589.45,181.12 -914.69,181.12 -325.19,0 -630.06,-60.42 -914.64,-181.12 -284.54,-120.75 -533.13,-286.36 -745.81,-496.88 -212.64,-210.57 -379.97,-456.68 -501.89,-738.38 -121.96,-281.79 -182.94,-583.62 -182.94,-905.57 0,-321.95 60.98,-623.87 182.94,-905.58 121.92,-281.74 289.25,-527.86 501.89,-738.37 212.68,-210.52 461.27,-376.14 745.81,-496.93 284.58,-120.7 589.45,-181.13 914.64,-181.13zm0 3455.1c156.36,0 304.96,-29.44 445.65,-88.23 140.74,-58.84 262.66,-139.29 365.9,-241.5 103.14,-102.16 184.5,-222.91 243.88,-362.2 59.43,-139.34 89.12,-286.36 89.12,-441.16 0,-154.81 -29.69,-301.88 -89.12,-441.21 -59.38,-139.34 -140.74,-260.04 -243.88,-362.2 -103.24,-102.17 -225.16,-182.67 -365.9,-241.46 -140.69,-58.88 -289.29,-88.28 -445.65,-88.28 -156.32,0 -304.87,29.4 -445.56,88.28 -140.74,58.79 -262.66,139.29 -365.89,241.46 -103.19,102.16 -184.5,222.86 -243.93,362.2 -59.39,139.33 -89.08,286.4 -89.08,441.21 0,154.8 29.69,301.82 89.08,441.16 59.43,139.29 140.74,260.04 243.93,362.2 103.23,102.21 225.15,182.66 365.89,241.5 140.69,58.79 289.24,88.23 445.56,88.23z"/>
   <path class="fil2" d="M25793.99 6958.92c-34.02,225.66 -100.18,440.46 -198.34,644.37 -128.22,266.28 -298.65,496.92 -511.24,691.98 -212.69,195.05 -456.57,349.81 -731.74,464.36 -275.27,114.55 -569.17,171.85 -881.9,171.85 -325.19,0 -630.1,-60.42 -914.69,-181.12 -284.53,-120.75 -533.12,-286.36 -745.81,-496.88 -212.64,-210.57 -379.91,-456.68 -501.88,-738.38 -121.92,-281.79 -182.95,-583.62 -182.95,-905.57 0,-321.95 61.03,-623.87 182.95,-905.58 121.97,-281.75 289.24,-527.86 501.88,-738.38 212.69,-210.51 461.28,-376.13 745.81,-496.92 284.59,-120.7 589.5,-181.13 914.69,-181.13 312.73,0 606.63,57.35 881.9,171.86 275.17,114.6 519.05,269.35 731.74,464.41 212.59,195.05 383.02,425.69 511.24,691.93 98.16,203.9 164.36,418.71 198.34,644.42l-1237.2 0c-20.61,-61.4 -46.44,-121.4 -77.5,-180.01 -65.69,-123.87 -148.6,-229.11 -248.64,-315.85 -100.03,-86.65 -215.74,-156.29 -347.07,-208.98 -131.37,-52.6 -268.91,-78.92 -412.81,-78.92 -156.36,0 -304.86,29.4 -445.6,88.28 -140.69,58.79 -262.66,139.29 -365.85,241.46 -103.24,102.16 -184.5,222.86 -243.93,362.2 -59.43,139.33 -89.12,286.4 -89.12,441.21 0,154.8 29.69,301.82 89.12,441.16 59.43,139.29 140.69,260.04 243.93,362.2 103.19,102.21 225.16,182.66 365.85,241.5 140.74,58.79 289.24,88.23 445.6,88.23 143.9,0 281.44,-26.27 412.81,-78.96 131.33,-52.64 247.04,-122.28 347.07,-208.98 100.04,-86.65 182.95,-190.35 248.64,-311.14 32.04,-58.93 58.54,-120.52 79.43,-184.62l1235.27 0z"/>
  </g>
 </g>
</svg>
