<?xml version="1.0" encoding="UTF-8"?>
<!DOCTYPE svg PUBLIC "-//W3C//DTD SVG 1.1//EN" "http://www.w3.org/Graphics/SVG/1.1/DTD/svg11.dtd">
<!-- Creator: CorelDRAW (Versión de evaluación) -->
<svg xmlns="http://www.w3.org/2000/svg" xml:space="preserve" width="420mm" height="297mm" version="1.1" style="shape-rendering:geometricPrecision; text-rendering:geometricPrecision; image-rendering:optimizeQuality; fill-rule:evenodd; clip-rule:evenodd"
viewBox="0 0 42000 29700"
 xmlns:xlink="http://www.w3.org/1999/xlink"
 xmlns:xodm="http://www.corel.com/coreldraw/odm/2003">
 <defs>
  <style type="text/css">
   <![CDATA[
    .fil0 {fill:white;fill-rule:nonzero}
   ]]>
  </style>
 </defs>
 <g id="Capa_x0020_1">
  <metadata id="CorelCorpID_0Corel-Layer"/>
  <path class="fil0" d="M20502.23 22934.61l-3.79 0c-1440.04,-1.03 -2854.72,-361.29 -4111.35,-1047.07l-4560.48 1196.12 1220.13 -4456.61c-752.84,-1304.26 -1148.57,-2783.87 -1148.57,-4299.97 2.45,-4742.24 3861.91,-8599.56 8603.03,-8599.56 2301.96,0.71 4461.83,895.97 6085.99,2521.87 1624.55,1625.89 2518.47,3786.47 2517.36,6084.32 -1.74,4742.55 -3861.12,8600.9 -8602.32,8600.9zm-129.23 -21870.81c-7609.43,0 -13777.72,6169.08 -13777.72,13778.52 0,7609.35 6168.29,13778.12 13777.72,13778.12 7609.44,0 13778.44,-6168.77 13778.44,-13778.12 0,-7609.44 -6169,-13778.52 -13778.44,-13778.52zm4337.5 16336.88c-178.91,502.36 -1038.07,960.57 -1450.47,1022.42 -370.69,54.9 -839.72,78.52 -1354.57,-85.15 -312,-98.97 -712.56,-231.35 -1225.35,-453.31 -2156.07,-930.09 -3564.43,-3101.41 -3671.78,-3244.53 -108.05,-143.53 -877.96,-1164.93 -877.96,-2223.13 0,-1057.5 555.21,-1577.25 752.13,-1792.33 197,-215.72 430.49,-269.19 573.62,-269.19 143.12,0 286.65,1.34 412,7.66 132.07,6.55 308.85,-50.4 483.25,368.87 179.31,430.49 609.4,1487.99 662.87,1595.33 53.87,107.74 89.66,233.49 18.09,377.02 -71.56,143.12 -107.34,232.7 -214.69,358.13 -107.74,125.75 -226.14,280.72 -322.74,376.3 -107.75,107.35 -219.91,223.7 -94.16,438.78 125.43,215.4 556.87,918.87 1195.49,1489.01 821.24,731.99 1513.97,958.53 1728.66,1066.19 215.09,108.06 340.84,89.65 465.96,-53.47 125.35,-143.53 537.44,-627.49 680.56,-842.18 143.84,-215.72 286.26,-179.62 483.96,-108.37 196.92,72.27 1253.79,591.62 1468.48,699.68 215.4,107.34 358.53,161.21 412.08,250.87 53.79,89.57 53.79,520.06 -125.43,1021.4zm-4205.82 -10220.96c-3944.53,0 -7151.86,3206.62 -7153.59,7147.67 -0.4,1351.1 377.64,2666.42 1093.28,3804.56l169.9 270.3 -722.27 2638.29 2706.38 -710.1 261.22 155.29c1097.46,651.34 2356.14,995.65 3639.15,996.36l3.48 0c3941.05,0 7148.77,-3206.62 7150.2,-7148.77 0.63,-1910.1 -742.1,-3705.83 -2092.17,-5057.32 -1350.39,-1351.1 -3145.48,-2095.57 -5055.58,-2096.28z"/>
 </g>
</svg>
